<?xml version="1.0" encoding="UTF-8" standalone="no"?>
<svg
   id="svg8"
   version="1.1"
   viewBox="0 0 12.7 12.7"
   height="48"
   width="48">
  <g
     id="layer1"
>
    <g
       transform="matrix(0.78959303,0,0,0.78959303,-55.388861,-85.924847)"
       clip-path="url(#clipPath1121)"
       id="btc">
      <g
         id="g1117"
>
        <g
           id="g878"
           clip-path="url(#clipPath880)"
           style="display:inline">
          <g
             id="g876"
             style="display:inline">
            <g
               style="font-style:normal;font-weight:normal;font-size:10.5833px;line-height:1.25;font-family:sans-serif;display:inline;fill:#000000;fill-opacity:1;stroke:none;stroke-width:0.264583"
               id="text835"
               aria-label="B">
              <path
                 id="path1921"
                 style="font-style:normal;font-variant:normal;font-weight:bold;font-stretch:normal;font-family:sans-serif;-inkscape-font-specification:'sans-serif Bold';stroke-width:0.264583"
                 d="m 82.026709,118.40695 q 0,0.55811 -0.227375,0.99735 -0.222208,0.43925 -0.614948,0.72864 -0.454751,0.34106 -1.002519,0.48576 -0.542601,0.14469 -1.379757,0.14469 h -3.358957 v -7.6946 h 2.986888 q 0.930173,0 1.359086,0.062 0.434081,0.062 0.857826,0.27389 0.439248,0.22221 0.651121,0.59944 0.21704,0.37207 0.21704,0.85266 0,0.55811 -0.294554,0.98702 -0.294555,0.42374 -0.831988,0.66146 v 0.0413 q 0.754473,0.14986 1.193721,0.62011 0.444416,0.47026 0.444416,1.24023 z m -2.542472,-3.16259 q 0,-0.1912 -0.09818,-0.3824 -0.09302,-0.1912 -0.335896,-0.28422 -0.21704,-0.0827 -0.542601,-0.0879 -0.320392,-0.0103 -0.904334,-0.0103 h -0.186035 v 1.6278 h 0.310058 q 0.470254,0 0.800982,-0.0155 0.330728,-0.0155 0.52193,-0.10335 0.268717,-0.11885 0.351399,-0.30489 0.08268,-0.1912 0.08268,-0.43925 z m 0.485757,3.13159 q 0,-0.36691 -0.144694,-0.56328 -0.139526,-0.20153 -0.480589,-0.29972 -0.232543,-0.0672 -0.640786,-0.0723 -0.408242,-0.005 -0.852658,-0.005 h -0.434081 v 1.91719 h 0.144694 q 0.837155,0 1.198889,-0.005 0.361734,-0.005 0.666624,-0.13436 0.310058,-0.12919 0.423745,-0.34106 0.118856,-0.21704 0.118856,-0.49609 z" />
            </g>
          </g>
        </g>
        <rect
           style="display:inline;fill:#000000;stroke-width:1.15484"
           id="rect837"
           width="0.75595242"
           height="1.2222075"
           x="78.959229"
           y="112.02889" />
        <rect
           y="111.97855"
           x="77.069344"
           height="1.2222075"
           width="0.75595242"
           id="rect837-3"
           style="display:inline;fill:#000000;stroke-width:1.15484" />
        <rect
           y="120.52058"
           x="79.072021"
           height="1.2222075"
           width="0.75595242"
           id="rect837-9"
           style="display:inline;fill:#000000;stroke-width:1.15484" />
        <rect
           style="display:inline;fill:#000000;stroke-width:1.15484"
           id="rect837-3-0"
           width="0.75595242"
           height="1.2222075"
           x="77.182137"
           y="120.47024" />
        <circle
           style="display:inline;fill:none;stroke-width:1.5452;stroke-opacity:1"
           id="path872"
           cx="78.243156"
           cy="116.89701"
           r="7"/>
      </g>
    </g>
  </g>
</svg>
